<svg width="220" height="60" viewBox="0 0 209 54" fill="none" xmlns="http://www.w3.org/2000/svg">
<path d="M11.6,43.8V24.7h-2c0-0.1-0.1-0.3-0.1-0.5c0-0.2,0-0.4,0.1-0.5h3.2v20h2c0,0.1,0.1,0.3,0.1,0.5c0,0.2,0,0.3-0.1,0.5H9.6
	c0-0.1-0.1-0.3-0.1-0.5c0-0.2,0-0.4,0.1-0.5H11.6z M22.5,45.1c-1.1,0-2-0.2-2.7-0.6c-0.8-0.4-1.4-1-1.9-1.7
	c-0.5-0.7-0.9-1.5-1.1-2.4c-0.2-0.9-0.4-1.8-0.4-2.8s0.1-1.9,0.4-2.7c0.2-0.9,0.6-1.7,1.1-2.4c0.5-0.7,1.1-1.2,1.9-1.7
	c0.8-0.4,1.7-0.6,2.7-0.6c1.1,0,2,0.2,2.7,0.6c0.8,0.4,1.4,1,1.9,1.7c0.5,0.7,0.9,1.5,1.1,2.4c0.2,0.9,0.4,1.8,0.4,2.7
	s-0.1,1.9-0.4,2.7c-0.2,0.9-0.6,1.7-1.1,2.4c-0.5,0.7-1.1,1.2-1.9,1.7C24.4,44.9,23.5,45.1,22.5,45.1z M22.5,44.1
	c1,0,1.9-0.2,2.5-0.7s1.1-1.1,1.5-1.7c0.4-0.7,0.6-1.4,0.7-2.1c0.1-0.7,0.2-1.3,0.2-1.8s-0.1-1.1-0.2-1.8c-0.1-0.7-0.4-1.4-0.7-2.1
	c-0.4-0.7-0.9-1.2-1.5-1.7s-1.5-0.7-2.5-0.7s-1.9,0.2-2.5,0.7s-1.1,1.1-1.5,1.7c-0.4,0.7-0.6,1.4-0.7,2.1c-0.1,0.7-0.2,1.3-0.2,1.8
	s0.1,1.1,0.2,1.8c0.1,0.7,0.4,1.4,0.7,2.1c0.4,0.7,0.8,1.2,1.5,1.7S21.4,44.1,22.5,44.1z M32.7,43.8V31.6h-2c0-0.1-0.1-0.3-0.1-0.5
	c0-0.2,0-0.4,0.1-0.5h3.2v2.4c0.5-0.9,1.1-1.6,1.9-2.1c0.8-0.5,1.7-0.7,2.9-0.7c1.4,0,2.5,0.4,3.2,1.2c0.8,0.8,1.1,2,1.1,3.6v8.7h2
	c0,0.1,0.1,0.3,0.1,0.5c0,0.2,0,0.3-0.1,0.5h-5.2c0-0.1-0.1-0.3-0.1-0.5c0-0.2,0-0.4,0.1-0.5h2v-8c0-0.6,0-1.2-0.1-1.8
	c-0.1-0.5-0.2-1-0.5-1.4c-0.2-0.4-0.6-0.7-1-0.9c-0.4-0.2-1-0.3-1.7-0.3c-0.6,0-1.2,0.1-1.7,0.3c-0.5,0.2-1,0.5-1.4,1s-0.7,1-1,1.8
	c-0.2,0.7-0.4,1.6-0.4,2.7v6.7h2c0,0.1,0.1,0.3,0.1,0.5c0,0.2,0,0.3-0.1,0.5h-5.2c0-0.1-0.1-0.3-0.1-0.5c0-0.2,0-0.4,0.1-0.5H32.7z
	 M57.4,44.1c-0.5,0.3-1.1,0.5-1.7,0.7s-1.4,0.3-2.2,0.3c-1.2,0-2.2-0.2-3-0.6c-0.8-0.4-1.5-0.9-2-1.6c-0.5-0.7-0.9-1.5-1.2-2.4
	s-0.4-1.8-0.4-2.8c0-1,0.1-1.9,0.3-2.8c0.2-0.9,0.6-1.7,1-2.4c0.5-0.7,1.1-1.2,1.8-1.6c0.7-0.4,1.6-0.6,2.5-0.6
	c1.1,0,1.9,0.2,2.6,0.6c0.7,0.4,1.3,1,1.7,1.7c0.4,0.7,0.7,1.5,0.9,2.4c0.2,0.9,0.3,1.9,0.3,2.9h-10c0.1,0.9,0.2,1.7,0.4,2.4
	c0.2,0.7,0.6,1.4,1,1.9c0.4,0.5,1,1,1.6,1.3c0.6,0.3,1.4,0.5,2.2,0.5c0.9,0,1.7-0.1,2.3-0.4c0.6-0.2,1.2-0.5,1.6-0.8V44.1z M56.8,37
	c0-0.6-0.1-1.2-0.2-1.9c-0.1-0.7-0.3-1.3-0.6-1.8c-0.3-0.6-0.7-1-1.3-1.4c-0.5-0.4-1.3-0.5-2.1-0.5c-0.8,0-1.5,0.2-2,0.6
	s-1,0.8-1.3,1.4s-0.6,1.2-0.7,1.8c-0.2,0.7-0.2,1.3-0.2,1.8H56.8z M62.1,43.8V24.7h-2c0-0.1-0.1-0.3-0.1-0.5c0-0.2,0-0.4,0.1-0.5
	h3.2v20h2c0,0.1,0.1,0.3,0.1,0.5c0,0.2,0,0.3-0.1,0.5h-5.2c0-0.1-0.1-0.3-0.1-0.5c0-0.2,0-0.4,0.1-0.5H62.1z M67,48.3
	c0.3,0.1,0.5,0.2,0.8,0.3c0.3,0.1,0.6,0.1,0.9,0.1c0.4,0,0.7,0,1-0.1c0.3-0.1,0.6-0.2,0.8-0.5c0.2-0.2,0.5-0.6,0.7-1
	c0.2-0.4,0.5-1,0.7-1.7l0.2-0.6l-4.8-13.1h-1.5c0-0.1-0.1-0.3-0.1-0.5c0-0.2,0-0.3,0.1-0.4h4.8c0,0.1,0.1,0.3,0.1,0.4
	c0,0.2,0,0.4-0.1,0.5h-2l4.1,11.6l4.1-11.6h-1.8c0-0.1-0.1-0.3-0.1-0.5c0-0.2,0-0.3,0.1-0.4h4.5c0,0.1,0.1,0.3,0.1,0.4
	c0,0.2,0,0.4-0.1,0.5h-1.5l-5.3,14.7c-0.2,0.6-0.4,1.1-0.6,1.5c-0.2,0.4-0.5,0.7-0.7,1c-0.4,0.4-0.9,0.7-1.4,0.8s-0.9,0.2-1.4,0.2
	c-0.4,0-0.7,0-1-0.1c-0.3-0.1-0.5-0.2-0.8-0.3V48.3z M88.8,40.1c0.2,0,0.4-0.1,0.5-0.1c0.2,0,0.4,0,0.5,0.1v0.3
	c0,0.6,0.1,1.2,0.4,1.7c0.2,0.5,0.6,0.8,1,1.1c0.4,0.3,0.9,0.5,1.4,0.7c0.5,0.1,1.1,0.2,1.8,0.2c0.5,0,0.9,0,1.4-0.1
	c0.5-0.1,0.8-0.2,1.2-0.5c0.3-0.2,0.6-0.5,0.8-0.9s0.3-0.8,0.3-1.3c0-0.5-0.1-0.9-0.2-1.2c-0.2-0.3-0.4-0.6-0.7-0.8
	c-0.3-0.2-0.6-0.4-1-0.6s-0.8-0.3-1.3-0.4l-2.4-0.6c-1.2-0.3-2.1-0.7-2.6-1.3c-0.5-0.6-0.8-1.3-0.8-2.1c0-0.7,0.1-1.3,0.4-1.8
	c0.2-0.5,0.6-0.9,1-1.2c0.4-0.3,0.9-0.5,1.4-0.7s1.1-0.2,1.7-0.2c0.9,0,1.7,0.1,2.4,0.4s1.3,0.7,1.7,1.3v-1.4c0.1,0,0.3-0.1,0.5-0.1
	c0.2,0,0.3,0,0.5,0.1v4.2c-0.2,0-0.4,0.1-0.5,0.1c-0.2,0-0.4,0-0.5-0.1v-0.7c0-0.2-0.1-0.5-0.2-0.8c-0.1-0.3-0.4-0.6-0.7-0.9
	s-0.8-0.5-1.3-0.7c-0.5-0.2-1.1-0.3-1.8-0.3c-0.4,0-0.8,0-1.2,0.1c-0.4,0.1-0.8,0.2-1.1,0.5s-0.5,0.5-0.7,0.8
	c-0.2,0.3-0.3,0.7-0.3,1.2c0,0.4,0.1,0.8,0.2,1.1s0.3,0.5,0.6,0.7c0.2,0.2,0.6,0.4,0.9,0.5c0.4,0.1,0.8,0.2,1.2,0.4l2.2,0.6
	c0.8,0.2,1.4,0.4,1.9,0.7c0.5,0.2,0.9,0.5,1.2,0.8s0.5,0.7,0.7,1.1s0.2,0.9,0.2,1.4c0,1.1-0.4,2-1.3,2.7C97.2,44.7,96,45,94.4,45
	c-0.9,0-1.7-0.2-2.6-0.5c-0.9-0.3-1.5-0.8-2-1.4v1.6c-0.1,0-0.3,0.1-0.5,0.1c-0.2,0-0.3,0-0.5-0.1V40.1z M103.3,43.8V24.7h-2
	c0-0.1-0.1-0.3-0.1-0.5c0-0.2,0-0.4,0.1-0.5h3.2v9.2c0.5-0.9,1.1-1.5,1.9-2c0.8-0.4,1.7-0.7,2.8-0.7c1.4,0,2.5,0.4,3.2,1.2
	c0.8,0.8,1.1,2,1.1,3.6v8.7h2c0,0.1,0.1,0.3,0.1,0.5c0,0.2,0,0.3-0.1,0.5h-5.2c0-0.1-0.1-0.3-0.1-0.5c0-0.2,0-0.4,0.1-0.5h2v-8
	c0-0.6,0-1.2-0.1-1.8c-0.1-0.5-0.2-1-0.5-1.4c-0.2-0.4-0.6-0.7-1-0.9c-0.4-0.2-1-0.3-1.7-0.3c-0.6,0-1.2,0.1-1.7,0.3
	c-0.5,0.2-1,0.5-1.4,1s-0.7,1-1,1.8c-0.2,0.7-0.4,1.6-0.4,2.7v6.7h2c0,0.1,0.1,0.3,0.1,0.5c0,0.2,0,0.3-0.1,0.5h-5.2
	c0-0.1-0.1-0.3-0.1-0.5c0-0.2,0-0.4,0.1-0.5H103.3z M118.4,31.6h-2c0-0.1-0.1-0.3-0.1-0.5c0-0.2,0-0.3,0.1-0.4h3.2v8.9
	c0,0.6,0,1.2,0.1,1.8s0.2,1,0.5,1.4c0.2,0.4,0.6,0.7,1,0.9c0.4,0.2,1,0.3,1.7,0.3c0.6,0,1.2-0.1,1.7-0.3s1-0.5,1.4-1
	c0.4-0.5,0.7-1,1-1.8c0.2-0.7,0.4-1.6,0.4-2.7v-6.7h-2c0-0.1-0.1-0.3-0.1-0.5c0-0.2,0-0.3,0.1-0.4h3.2v13.1h2c0,0.1,0.1,0.3,0.1,0.4
	c0,0.2,0,0.4-0.1,0.5h-3.2v-2.4c-0.5,0.9-1.1,1.6-1.9,2.1c-0.8,0.5-1.7,0.7-2.9,0.7c-1.4,0-2.5-0.4-3.2-1.2c-0.8-0.8-1.1-2-1.1-3.6
	V31.6z M134,31.7h-2.3c0-0.1-0.1-0.3-0.1-0.5c0-0.2,0-0.4,0.1-0.5h2.3v-3.9l1.2-0.7v4.6h3.5c0,0.1,0.1,0.3,0.1,0.5
	c0,0.2,0,0.4-0.1,0.5h-3.5v9.2c0,0.7,0.1,1.2,0.2,1.6c0.1,0.4,0.3,0.6,0.5,0.8c0.2,0.2,0.4,0.3,0.7,0.4s0.5,0.1,0.8,0.1
	c0.5,0,0.8,0,1.1-0.1s0.5-0.1,0.7-0.2v1.1c-0.5,0.2-1.1,0.3-1.8,0.3c-1.1,0-1.9-0.3-2.5-0.9c-0.6-0.6-0.9-1.6-0.9-2.8V31.7z
	 M142.3,31.7H140c0-0.1-0.1-0.3-0.1-0.5c0-0.2,0-0.4,0.1-0.5h2.3v-3.9l1.2-0.7v4.6h3.5c0,0.1,0.1,0.3,0.1,0.5c0,0.2,0,0.4-0.1,0.5
	h-3.5v9.2c0,0.7,0.1,1.2,0.2,1.6c0.1,0.4,0.3,0.6,0.5,0.8c0.2,0.2,0.4,0.3,0.7,0.4s0.5,0.1,0.8,0.1c0.5,0,0.8,0,1.1-0.1
	s0.5-0.1,0.7-0.2v1.1c-0.5,0.2-1.1,0.3-1.8,0.3c-1.1,0-1.9-0.3-2.5-0.9c-0.6-0.6-0.9-1.6-0.9-2.8V31.7z M158.8,44.1
	c-0.5,0.3-1.1,0.5-1.7,0.7s-1.4,0.3-2.2,0.3c-1.2,0-2.2-0.2-3-0.6c-0.8-0.4-1.5-0.9-2-1.6c-0.5-0.7-0.9-1.5-1.2-2.4
	s-0.4-1.8-0.4-2.8c0-1,0.1-1.9,0.3-2.8c0.2-0.9,0.6-1.7,1-2.4c0.5-0.7,1.1-1.2,1.8-1.6c0.7-0.4,1.6-0.6,2.5-0.6
	c1.1,0,1.9,0.2,2.6,0.6c0.7,0.4,1.3,1,1.7,1.7c0.4,0.7,0.7,1.5,0.9,2.4c0.2,0.9,0.3,1.9,0.3,2.9h-10c0.1,0.9,0.2,1.7,0.4,2.4
	c0.2,0.7,0.6,1.4,1,1.9c0.4,0.5,1,1,1.6,1.3s1.4,0.5,2.2,0.5c0.9,0,1.7-0.1,2.3-0.4s1.2-0.5,1.6-0.8V44.1z M158.1,37
	c0-0.6-0.1-1.2-0.2-1.9c-0.1-0.7-0.3-1.3-0.6-1.8c-0.3-0.6-0.7-1-1.3-1.4c-0.5-0.4-1.3-0.5-2.1-0.5c-0.8,0-1.5,0.2-2,0.6
	c-0.6,0.4-1,0.8-1.3,1.4s-0.6,1.2-0.7,1.8c-0.2,0.7-0.2,1.3-0.2,1.8H158.1z M163.5,43.8V31.6h-2c0-0.1-0.1-0.3-0.1-0.5
	c0-0.2,0-0.4,0.1-0.5h3.2v3c0.2-0.4,0.4-0.8,0.6-1.1c0.3-0.4,0.6-0.7,0.9-1c0.3-0.3,0.7-0.5,1.1-0.7c0.4-0.2,0.9-0.3,1.3-0.3
	c0.4,0,0.7,0,0.9,0.1c0.2,0,0.4,0.1,0.5,0.1l-0.1,1.1c-0.1,0-0.3-0.1-0.5-0.1c-0.2,0-0.5-0.1-0.9-0.1c-0.4,0-0.8,0.1-1.3,0.3
	s-0.9,0.6-1.2,1.1c-0.4,0.5-0.7,1.1-0.9,2c-0.2,0.8-0.4,1.8-0.4,2.9v5.7h2.2c0,0.1,0.1,0.3,0.1,0.5c0,0.2,0,0.3-0.1,0.5h-5.4
	c0-0.1-0.1-0.3-0.1-0.5c0-0.2,0-0.4,0.1-0.5H163.5z" fill="#B1B1B1"/>
<path d="M180.9,37.8v1.8h2.8c0.1,0,0.1,0.1,0.1,0.1v4.4c0,0.1-0.2,0.3-0.5,0.6c-0.3,0.3-0.4,0.5-0.6,0.5h-5.3
	c-0.1,0-0.1-0.1-0.1-0.1l0.3-1.5v-3.2c0.1,0,0.8-0.8,0.9-0.8h1.9v-1.8h-0.5c-1.1,0-2-0.5-2.7-1.1c-1.2-1.1-1.8-2.9-1.8-4.3v-3.8
	c0-0.3-1.1-0.2-1.9-1c-0.5-0.6-1-1.1-1-2c0-0.7,0.5-1.3,1.3-1.3c0,0,0.3,0,0.5,0c1,0,2.6,0.5,2.6,0.5c0.2-0.2,0.1-1.4,0.7-2.3
	c0.4-0.5,1.3-1.4,2.2-1.4h0.3c0.3,0,0.6,0.1,1.2,0.8c0.5-0.5,1.1-0.7,1.6-0.7c0.6,0,2,0.7,2.1,2.3c0,0,0,0.6,0,0.7l-0.2,1.3h2.4
	c0.6,0,1.6,0.3,1.7,1.1c0,0.2,0,0.5,0,0.5c0,0.1-0.1,0.7-0.6,1.3c-1.2,1.2-2,1-2.3,1.1c0,0,0,1.4,0,2.2c0,0.4,0,0.6,0,1
	c-0.1,1.6-0.7,3.1-1.8,4c-1.3,1.1-2.7,1.1-2.7,1.1H180.9z M174.3,24.9c-0.1,0-0.4,0-0.4,0c-0.4,0-0.6,0.1-0.6,0.4c0,0.1,0,0.4,0,0.4
	c-0.1,0.6,1,1.8,2.4,2.1c0.1-0.3,0-1,1-2.4C176.6,25.4,175.2,24.9,174.3,24.9z M183,36.7c1.6-0.9,2.4-3,2.4-5v-3
	c0-0.6-0.7-2.2-0.9-2.4c0,0-3.4-0.3-3.4-0.3s-3.5-0.3-3.7-0.3c-0.6,1-1.2,1.4-1.2,3.5v3.2c0,1.7,0.7,3.6,2.3,4.4
	c0.8,0.4,1.2,0.5,2.7,0.5C181.8,37.2,182.4,37,183,36.7z M178.5,31.2h-0.3c-1.1,0-1.7-1.2-1.7-1.7v-0.3c0-1.1,1.2-1.7,1.7-1.7h0.3
	c1.1,0,1.7,1.2,1.7,1.7v0.3C180.2,30.6,179,31.2,178.5,31.2z M179.9,29.2c0-0.4-0.5-1.4-1.4-1.4h-0.3c-0.4,0-1.4,0.5-1.4,1.4v0.3
	c0,0.4,0.5,1.4,1.4,1.4h0.3c0.4,0,1.4-0.5,1.4-1.4V29.2z M178.5,30.6h-0.2c-0.4,0-1.1-0.5-1.1-1.1v-0.3c0-0.4,0.5-1.1,1.1-1.1h0.2
	c0.4,0,1.1,0.5,1.1,1.1v0.3C179.6,29.9,179,30.6,178.5,30.6z M178.4,28.5c-0.4,0-0.8,0.3-0.8,0.8c0,0.4,0.3,0.8,0.8,0.8
	c0.4,0,0.8-0.3,0.8-0.8C179.2,29,178.9,28.5,178.4,28.5z M184.5,23.6c-0.1-1.1-1-1.7-1.5-1.7c-1.2,0-1.6,1.4-2.1,1.4
	c-0.2,0-0.3-0.1-0.3-0.3c0-0.3,0.4-0.6,0.4-0.6c-0.3-0.2-0.4-0.6-1-0.6c-2.1,0-2.4,3.1-2.4,3.1l6.2,0.6h0.4c0.1-0.7,0.2-1.3,0.2-1.3
	V23.6z M182.8,43.8H178l-0.3,1.1h4.9L182.8,43.8L182.8,43.8z M178.3,29.9c-0.1,0-0.5-0.1-0.5-0.5c0-0.1,0.1-0.5,0.5-0.5
	c0.1,0,0.5,0.1,0.5,0.5C178.8,29.5,178.7,29.9,178.3,29.9z M178.2,44.8c0,0,0-0.1,0-0.2h0.3c0,0,0,0.2,0,0.2H178.2z M178.3,29.2
	c0,0-0.1,0.1-0.1,0.1c0,0,0.1,0.1,0.1,0.1c0,0,0.1-0.1,0.1-0.1C178.5,29.3,178.4,29.2,178.3,29.2z M183.4,39.9h-4.7l-0.5,0.5
	c0,0,4.7,0,4.7,0L183.4,39.9L183.4,39.9z M178.3,44.3l0-0.3h0.3c0,0,0,0.2,0,0.3H178.3z M180.7,36c-0.7,0-2.3-0.9-2.3-2.3
	c0-0.3,0.3-0.5,0.4-0.5c0.3,0,0.8,0.7,1.9,0.7c1.1,0,1.6-0.7,1.8-0.7c0.2,0,0.4,0.2,0.4,0.5C183,34.4,182,36,180.7,36z M178.7,44.8
	c0,0,0-0.1,0-0.2h0.3c0,0,0,0.2,0,0.2H178.7z M178.9,44.3c0,0,0-0.2,0-0.3h0.3c0,0,0,0.2,0,0.3H178.9z M181.9,41.5h-2.8v1.3h2.8
	V41.5z M179.3,44.8c0,0,0-0.1,0-0.2h0.3c0,0,0,0.2,0,0.2H179.3z M179.4,44.3c0,0,0-0.2,0-0.3h0.3l0,0.3H179.4z M180.1,32.9
	c-0.2,0-0.3-0.1-0.3-0.3c0-0.1,0.4-0.7,0.4-1.2v-0.4c0,0-0.2-0.5,0.3-0.5c0.2,0,0.3,0.2,0.3,0.5v0.5c0,0.2-0.1,0.6-0.2,0.7
	c0.4,0,0.4-0.1,0.6-0.1c0.1,0,0.3,0.1,0.3,0.3C181.5,32.6,180.6,32.9,180.1,32.9z M179.8,44.8c0,0,0-0.2,0-0.2h0.3c0,0,0,0.2,0,0.2
	H179.8z M180,44.3c0,0,0-0.2,0-0.3h0.3l0,0.3H180z M180.4,44.8c0,0,0-0.2,0-0.2h0.3c0,0,0,0.2,0,0.2H180.4z M180.5,44.3
	c0,0,0-0.2,0-0.3h0.3c0,0,0,0.2,0,0.3H180.5z M180.9,44.8c0,0,0-0.1,0-0.2h0.3c0,0,0,0.2,0,0.2H180.9z M181.1,44.3c0,0,0-0.2,0-0.3
	h0.3c0,0,0,0.2,0,0.3H181.1z M183.2,31.2h-0.3c-1.1,0-1.7-1.2-1.7-1.7v-0.3c0-1.1,1.2-1.7,1.7-1.7h0.3c1.1,0,1.7,1.2,1.7,1.7v0.3
	C184.9,30.6,183.7,31.2,183.2,31.2z M181.5,44.8c0,0,0-0.1,0-0.2h0.3c0,0,0,0.2,0,0.2H181.5z M184.5,29.2c0-0.4-0.5-1.4-1.4-1.4
	h-0.3c-0.4,0-1.4,0.5-1.4,1.4v0.3c0,0.4,0.5,1.4,1.4,1.4h0.3c0.4,0,1.4-0.5,1.4-1.4V29.2z M181.6,44.3l0-0.3h0.3c0,0,0,0.2,0,0.3
	H181.6z M183.2,30.6h-0.3c-0.4,0-1.1-0.5-1.1-1.1v-0.3c0-0.4,0.5-1.1,1.1-1.1h0.3c0.4,0,1.1,0.5,1.1,1.1v0.3
	C184.2,29.9,183.7,30.6,183.2,30.6z M182,44.8c0,0,0-0.1,0-0.2h0.3c0,0,0,0.2,0,0.2H182z M182.2,44.3l0-0.3h0.3c0,0,0,0.2,0,0.3
	H182.2z M183.1,28.5c-0.4,0-0.8,0.3-0.8,0.8c0,0.4,0.3,0.8,0.8,0.8c0.4,0,0.8-0.3,0.8-0.8C183.9,29,183.6,28.5,183.1,28.5z
	 M183,29.9c-0.1,0-0.5-0.1-0.5-0.5c0-0.1,0.1-0.5,0.5-0.5c0.1,0,0.5,0.1,0.5,0.5C183.5,29.5,183.4,29.9,183,29.9z M183,29.2
	c0,0-0.1,0.1-0.1,0.1c0,0,0.1,0.1,0.1,0.1c0,0,0.1-0.1,0.1-0.1C183.2,29.3,183.1,29.2,183,29.2z M188.3,26.8
	c-0.1-0.5-0.8-0.6-1.2-0.6h-2c0.6,1.1,0.8,2,0.8,2.6l0.4,0c0,0,2-0.5,2-1.7C188.3,27.1,188.3,26.9,188.3,26.8z" fill="#B1B1B1"/>
</svg>
